name analog
datacolumns 19
datarows 68
range 0.3825 0.41600000000000004
endheader
time	ground_force_vx	ground_force_vy	ground_force_vz	ground_force_px	ground_force_py	ground_force_pz	l_ground_force_vx	l_ground_force_vy	l_ground_force_vz	l_ground_force_px	l_ground_force_py	l_ground_force_pz	ground_torque_x	ground_torque_y	ground_torque_z	l_ground_torque_x	l_ground_torque_y	l_ground_torque_z
0.3825	-0.0	-0.0	-0.0	-0.0	-0.0	-0.0	-3.0446956157684326	-1.441550850868225	-662.1493530273438	-0.0	-0.0	-0.0	-0.0	-0.0	-0.0	175070.125	-16082.015625	-2111.510009765625
0.383	-0.0	-0.0	-0.0	-0.0	-0.0	-0.0	-1.8029764890670776	-2.285207271575928	-660.7080078125	-0.0	-0.0	-0.0	-0.0	-0.0	-0.0	174653.765625	-16103.755859375	-1860.267822265625
0.3835	-0.0	-0.0	-0.0	-0.0	-0.0	-0.0	-1.0645294189453125	-2.521679401397705	-658.0367431640625	-0.0	-0.0	-0.0	-0.0	-0.0	-0.0	173814.890625	-16322.4072265625	-1437.9908447265625
0.384	-0.0	-0.0	-0.0	-0.0	-0.0	-0.0	-0.4727603197097778	-3.1993284225463867	-655.8217163085938	-0.0	-0.0	-0.0	-0.0	-0.0	-0.0	173373.75	-16419.494140625	-1187.7105712890625
0.3845	-0.0	-0.0	-0.0	-0.0	-0.0	-0.0	0.1971936523914337	-4.200070381164551	-656.6763305664062	-0.0	-0.0	-0.0	-0.0	-0.0	-0.0	173202.109375	-16375.80078125	-1055.6090087890625
0.385	-0.0	-0.0	-0.0	-0.0	-0.0	-0.0	0.5617583990097046	-4.4258341789245605	-656.8317260742188	-0.0	-0.0	-0.0	-0.0	-0.0	-0.0	172884.59375	-16439.359375	-920.3098754882812
0.3855	-0.0	-0.0	-0.0	-0.0	-0.0	-0.0	0.9758186340332032	-4.6216301918029785	-656.98583984375	-0.0	-0.0	-0.0	-0.0	-0.0	-0.0	172616.859375	-16429.294921875	-860.7369995117188
0.386	-0.0	-0.0	-0.0	-0.0	-0.0	-0.0	0.709686279296875	-4.670625686645508	-655.8194580078125	-0.0	-0.0	-0.0	-0.0	-0.0	-0.0	172486.765625	-16108.958984375	-939.8892822265624
0.3865	-0.0	-0.0	-0.0	-0.0	-0.0	-0.0	-0.3636199235916137	-4.633487224578857	-656.8309326171875	-0.0	-0.0	-0.0	-0.0	-0.0	-0.0	172221.421875	-15721.5029296875	-1326.2127685546875
0.387	-0.0	-0.0	-0.0	-0.0	-0.0	-0.0	-2.051377773284912	-4.2587761878967285	-657.6488037109375	-0.0	-0.0	-0.0	-0.0	-0.0	-0.0	172516.96875	-15387.5009765625	-1841.7113037109373
0.3875	-0.0	-0.0	-0.0	-0.0	-0.0	-0.0	-3.0741934776306152	-3.720802783966065	-658.5446166992188	-0.0	-0.0	-0.0	-0.0	-0.0	-0.0	172568.390625	-15114.814453125	-2244.6630859375
0.388	-0.0	-0.0	-0.0	-0.0	-0.0	-0.0	-3.617877244949341	-3.1795806884765625	-659.6232299804688	-0.0	-0.0	-0.0	-0.0	-0.0	-0.0	172978.390625	-14858.787109375	-2323.61767578125
0.3885	-0.0	-0.0	-0.0	-0.0	-0.0	-0.0	-3.764272928237915	-3.652133464813232	-659.5762939453125	-0.0	-0.0	-0.0	-0.0	-0.0	-0.0	173371.921875	-15102.41015625	-2307.0068359375
0.389	-0.0	-0.0	-0.0	-0.0	-0.0	-0.0	-4.068542003631592	-3.733711957931519	-663.2374267578125	-0.0	-0.0	-0.0	-0.0	-0.0	-0.0	174001.65625	-14720.4931640625	-2542.149658203125
0.3895	-0.0	-0.0	-0.0	-0.0	-0.0	-0.0	-5.20241117477417	-3.1036672592163086	-666.1322631835938	-0.0	-0.0	-0.0	-0.0	-0.0	-0.0	174803.546875	-14520.1875	-2850.02978515625
0.39	-0.0	-0.0	-0.0	-0.0	-0.0	-0.0	-5.873909950256348	-1.5392985343933103	-667.8021850585938	-0.0	-0.0	-0.0	-0.0	-0.0	-0.0	176151.53125	-14611.0302734375	-3087.52880859375
0.3905	-0.0	-0.0	-0.0	-0.0	-0.0	-0.0	-6.254677295684815	-0.4922392070293426	-671.0181884765625	-0.0	-0.0	-0.0	-0.0	-0.0	-0.0	177114.40625	-14556.3720703125	-3284.62255859375
0.391	-0.0	-0.0	-0.0	-0.0	-0.0	-0.0	-5.690796375274658	0.8081427812576294	-674.2117919921875	-0.0	-0.0	-0.0	-0.0	-0.0	-0.0	178110.921875	-14200.0185546875	-3082.598388671875
0.3915	-0.0	-0.0	-0.0	-0.0	-0.0	-0.0	-5.360221862792969	0.86971515417099	-675.95751953125	-0.0	-0.0	-0.0	-0.0	-0.0	-0.0	178790.796875	-14493.24609375	-3088.6513671875
0.392	-0.0	-0.0	-0.0	-0.0	-0.0	-0.0	-5.159095764160156	0.4926739931106567	-679.3018188476562	-0.0	-0.0	-0.0	-0.0	-0.0	-0.0	179484.0625	-14273.1240234375	-2940.283935546875
0.3925	-0.0	-0.0	-0.0	-0.0	-0.0	-0.0	-4.557043075561523	0.9247976541519164	-680.220703125	-0.0	-0.0	-0.0	-0.0	-0.0	-0.0	180464.765625	-14469.2548828125	-2754.029296875
0.393	-0.0	-0.0	-0.0	-0.0	-0.0	-0.0	-4.538657188415527	1.961571455001831	-681.89306640625	-0.0	-0.0	-0.0	-0.0	-0.0	-0.0	181169.828125	-14296.154296875	-2731.821533203125
0.3935	-0.0	-0.0	-0.0	-0.0	-0.0	-0.0	-5.019517421722412	3.220180988311768	-682.3729858398438	-0.0	-0.0	-0.0	-0.0	-0.0	-0.0	181183.28125	-14249.736328125	-2844.314208984375
0.394	-0.0	-0.0	-0.0	-0.0	-0.0	-0.0	-5.056514739990234	3.7278647422790527	-682.5914306640625	-0.0	-0.0	-0.0	-0.0	-0.0	-0.0	181312.09375	-14183.904296875	-2767.56982421875
0.3945	-0.0	-0.0	-0.0	-0.0	-0.0	-0.0	-4.84236478805542	4.382613658905029	-682.0977172851562	-0.0	-0.0	-0.0	-0.0	-0.0	-0.0	181036.4375	-13997.671875	-2541.156494140625
0.395	-0.0	-0.0	-0.0	-0.0	-0.0	-0.0	-4.044122219085693	4.610934257507324	-682.1702880859375	-0.0	-0.0	-0.0	-0.0	-0.0	-0.0	181000.796875	-14093.8427734375	-2367.802490234375
0.3955	-0.0	-0.0	-0.0	-0.0	-0.0	-0.0	-3.0525994300842285	4.397947788238525	-680.845703125	-0.0	-0.0	-0.0	-0.0	-0.0	-0.0	180916.390625	-14028.869140625	-2101.10986328125
0.396	-0.0	-0.0	-0.0	-0.0	-0.0	-0.0	-3.0181517601013184	3.8700709342956543	-681.4725341796875	-0.0	-0.0	-0.0	-0.0	-0.0	-0.0	180842.578125	-14175.9248046875	-2083.048095703125
0.3965	-0.0	-0.0	-0.0	-0.0	-0.0	-0.0	-2.855116844177246	4.399784088134766	-682.520263671875	-0.0	-0.0	-0.0	-0.0	-0.0	-0.0	181405.359375	-14006.26953125	-1863.7003173828125
0.397	-0.0	-0.0	-0.0	-0.0	-0.0	-0.0	-2.359163999557495	5.088139533996582	-685.1773071289062	-0.0	-0.0	-0.0	-0.0	-0.0	-0.0	181490.046875	-14278.59765625	-1803.868408203125
0.3975	-0.0	-0.0	-0.0	-0.0	-0.0	-0.0	-1.9506665468215945	5.670445442199707	-685.247314453125	-0.0	-0.0	-0.0	-0.0	-0.0	-0.0	181853.015625	-14489.2666015625	-1649.1378173828125
0.398	-0.0	-0.0	-0.0	-0.0	-0.0	-0.0	-1.933765172958374	6.500217437744141	-684.7566528320312	-0.0	-0.0	-0.0	-0.0	-0.0	-0.0	181819.578125	-14162.18359375	-1844.8712158203125
0.3985	-0.0	-0.0	-0.0	-0.0	-0.0	-0.0	-3.069570302963257	6.164794921875	-683.0806884765625	-0.0	-0.0	-0.0	-0.0	-0.0	-0.0	180992.421875	-13992.3935546875	-2065.293701171875
0.399	-0.0	-0.0	-0.0	-0.0	-0.0	-0.0	-4.133867740631104	5.970491409301758	-679.65869140625	-0.0	-0.0	-0.0	-0.0	-0.0	-0.0	179878.3125	-13726.4248046875	-2404.21044921875
0.3995	-0.0	-0.0	-0.0	-0.0	-0.0	-0.0	-5.57070779800415	4.910849571228027	-676.0270385742188	-0.0	-0.0	-0.0	-0.0	-0.0	-0.0	178732.46875	-13493.0478515625	-2814.893310546875
0.4	-0.0	-0.0	-0.0	-0.0	-0.0	-0.0	-6.582180500030518	3.638694524765015	-674.3470458984375	-0.0	-0.0	-0.0	-0.0	-0.0	-0.0	177970.390625	-13281.43359375	-2880.90234375
0.4005	-0.0	-0.0	-0.0	-0.0	-0.0	-0.0	-6.919441223144531	2.950634002685547	-674.349609375	-0.0	-0.0	-0.0	-0.0	-0.0	-0.0	177705.40625	-13114.08203125	-3142.70458984375
0.401	-0.0	-0.0	-0.0	-0.0	-0.0	-0.0	-6.811812400817871	2.0487704277038574	-672.9525146484375	-0.0	-0.0	-0.0	-0.0	-0.0	-0.0	177475.28125	-13480.4453125	-3178.868408203125
0.4015	-0.0	-0.0	-0.0	-0.0	-0.0	-0.0	-6.068931579589844	1.960371732711792	-675.1224975585938	-0.0	-0.0	-0.0	-0.0	-0.0	-0.0	177613.515625	-13695.453125	-3119.16357421875
0.402	-0.0	-0.0	-0.0	-0.0	-0.0	-0.0	-4.701671600341797	1.8202924728393557	-676.3834228515625	-0.0	-0.0	-0.0	-0.0	-0.0	-0.0	177623.546875	-13840.9521484375	-2891.14111328125
0.4025	-0.0	-0.0	-0.0	-0.0	-0.0	-0.0	-3.193588256835937	2.3160438537597656	-676.2388305664062	-0.0	-0.0	-0.0	-0.0	-0.0	-0.0	177966.546875	-14373.3681640625	-2594.827880859375
0.403	-0.0	-0.0	-0.0	-0.0	-0.0	-0.0	-1.470848798751831	1.8576595783233645	-678.198974609375	-0.0	-0.0	-0.0	-0.0	-0.0	-0.0	178161.640625	-14626.6435546875	-2183.2626953125
0.4035	-0.0	-0.0	-0.0	-0.0	-0.0	-0.0	-0.3548431396484375	1.6643162965774536	-678.8853149414062	-0.0	-0.0	-0.0	-0.0	-0.0	-0.0	178319.765625	-14750.484375	-1927.9921875
0.404	-0.0	-0.0	-0.0	-0.0	-0.0	-0.0	0.3852532804012298	0.5468727350234985	-678.6837768554688	-0.0	-0.0	-0.0	-0.0	-0.0	-0.0	178579.390625	-15058.5947265625	-1768.048583984375
0.4045	-0.0	-0.0	-0.0	-0.0	-0.0	-0.0	0.9927645921707152	0.4793152511119842	-680.5631713867188	-0.0	-0.0	-0.0	-0.0	-0.0	-0.0	178232.078125	-15129.708984375	-1632.0257568359375
0.405	-0.0	-0.0	-0.0	-0.0	-0.0	-0.0	1.7742156982421875	-0.3743745684623718	-678.1189575195312	-0.0	-0.0	-0.0	-0.0	-0.0	-0.0	178252.703125	-15414.009765625	-1458.0164794921875
0.4055	-0.0	-0.0	-0.0	-0.0	-0.0	-0.0	2.411996364593506	-0.9166799187660216	-677.40185546875	-0.0	-0.0	-0.0	-0.0	-0.0	-0.0	177722.484375	-15401.0673828125	-1201.9375
0.406	-0.0	-0.0	-0.0	-0.0	-0.0	-0.0	3.099871635437012	-1.5514713525772097	-677.373779296875	-0.0	-0.0	-0.0	-0.0	-0.0	-0.0	176903.09375	-15595.7265625	-1054.8988037109375
0.40650000000000003	-0.0	-0.0	-0.0	-0.0	-0.0	-0.0	4.296819686889648	-2.561328887939453	-676.044189453125	-0.0	-0.0	-0.0	-0.0	-0.0	-0.0	176256.84375	-15500.9833984375	-651.996826171875
0.40700000000000003	-0.0	-0.0	-0.0	-0.0	-0.0	-0.0	4.485316276550293	-3.0690155029296875	-673.252197265625	-0.0	-0.0	-0.0	-0.0	-0.0	-0.0	175882.75	-16105.6572265625	-498.25238037109375
0.40750000000000003	-0.0	-0.0	-0.0	-0.0	-0.0	-0.0	4.8956217765808105	-3.3397679328918457	-674.3418579101562	-0.0	-0.0	-0.0	-0.0	-0.0	-0.0	175832.359375	-15951.740234375	-253.28892517089844
0.40800000000000003	-0.0	-0.0	-0.0	-0.0	-0.0	-0.0	5.549422264099121	-3.411787509918213	-674.2371826171875	-0.0	-0.0	-0.0	-0.0	-0.0	-0.0	175606.203125	-16100.9716796875	-221.07156372070312
0.40850000000000003	-0.0	-0.0	-0.0	-0.0	-0.0	-0.0	6.475887298583984	-2.46626353263855	-672.8796997070312	-0.0	-0.0	-0.0	-0.0	-0.0	-0.0	175284.140625	-16209.4150390625	-87.27789306640625
0.40900000000000003	-0.0	-0.0	-0.0	-0.0	-0.0	-0.0	7.106050491333008	-2.456762313842773	-671.2901000976562	-0.0	-0.0	-0.0	-0.0	-0.0	-0.0	175018.46875	-16058.443359375	322.8944091796875
0.40950000000000003	-0.0	-0.0	-0.0	-0.0	-0.0	-0.0	7.927738189697266	-2.384685516357422	-669.3579711914062	-0.0	-0.0	-0.0	-0.0	-0.0	-0.0	174370.65625	-16235.33203125	703.5961303710938
0.41000000000000003	-0.0	-0.0	-0.0	-0.0	-0.0	-0.0	8.201576232910156	-1.9591816663742063	-668.2433471679688	-0.0	-0.0	-0.0	-0.0	-0.0	-0.0	173872.4375	-15686.19140625	693.0172729492188
0.41050000000000003	-0.0	-0.0	-0.0	-0.0	-0.0	-0.0	6.274173259735107	-2.41675353050232	-666.6260986328125	-0.0	-0.0	-0.0	-0.0	-0.0	-0.0	173152.640625	-15190.244140625	416.4070434570313
0.41100000000000003	-0.0	-0.0	-0.0	-0.0	-0.0	-0.0	4.863065719604492	-2.119720458984375	-664.3724975585938	-0.0	-0.0	-0.0	-0.0	-0.0	-0.0	172786.296875	-14956.9638671875	65.11531829833984
0.41150000000000003	-0.0	-0.0	-0.0	-0.0	-0.0	-0.0	3.427790880203247	-2.119720458984375	-662.5919189453125	-0.0	-0.0	-0.0	-0.0	-0.0	-0.0	172443.0	-14635.482421875	-326.7719116210937
0.41200000000000003	-0.0	-0.0	-0.0	-0.0	-0.0	-0.0	2.201882123947144	-2.1764063835144043	-661.194091796875	-0.0	-0.0	-0.0	-0.0	-0.0	-0.0	172187.890625	-14259.4404296875	-624.1436157226562
0.41250000000000003	-0.0	-0.0	-0.0	-0.0	-0.0	-0.0	0.8775234818458557	-1.9745888710021973	-662.5652465820312	-0.0	-0.0	-0.0	-0.0	-0.0	-0.0	172182.5625	-13844.2021484375	-827.2656860351562
0.41300000000000003	-0.0	-0.0	-0.0	-0.0	-0.0	-0.0	0.4435539245605469	-2.0157134532928467	-663.7763671875	-0.0	-0.0	-0.0	-0.0	-0.0	-0.0	172197.3125	-13713.8486328125	-1141.2896728515625
0.41350000000000003	-0.0	-0.0	-0.0	-0.0	-0.0	-0.0	0.5322647094726562	-1.2521120309829712	-663.4708862304688	-0.0	-0.0	-0.0	-0.0	-0.0	-0.0	172822.5625	-13705.2099609375	-1043.42333984375
0.41400000000000003	-0.0	-0.0	-0.0	-0.0	-0.0	-0.0	0.1774215698242187	-1.5014686584472656	-665.2567138671875	-0.0	-0.0	-0.0	-0.0	-0.0	-0.0	173179.375	-13570.3349609375	-1014.053466796875
0.41450000000000004	-0.0	-0.0	-0.0	-0.0	-0.0	-0.0	0.1307940930128097	-0.8722667694091797	-666.0589599609375	-0.0	-0.0	-0.0	-0.0	-0.0	-0.0	173537.96875	-13480.890625	-1176.2957763671875
0.41500000000000004	-0.0	-0.0	-0.0	-0.0	-0.0	-0.0	-0.1815021485090255	-1.163579344749451	-665.0729370117188	-0.0	-0.0	-0.0	-0.0	-0.0	-0.0	173370.25	-13316.783203125	-1221.8216552734375
0.41550000000000004	-0.0	-0.0	-0.0	-0.0	-0.0	-0.0	-1.3460631370544434	-1.516802430152893	-664.8912963867188	-0.0	-0.0	-0.0	-0.0	-0.0	-0.0	172907.359375	-13062.5712890625	-1331.0743408203125
0.41600000000000004	-0.0	-0.0	-0.0	-0.0	-0.0	-0.0	-1.3492193222045898	-1.988847613334656	-663.7974853515625	-0.0	-0.0	-0.0	-0.0	-0.0	-0.0	172449.96875	-12944.509765625	-1262.7271728515625
